<svg xmlns="http://www.w3.org/2000/svg" width="1600" height="1000" viewBox="0 0 1600 1000">
  <defs>
    <linearGradient id="bg" x1="0" y1="0" x2="1" y2="1">
      <stop offset="0%" stop-color="#fbfbf9"/>
      <stop offset="100%" stop-color="#eeece5"/>
    </linearGradient>
    <filter id="shadow" x="-20%" y="-20%" width="140%" height="140%">
      <feDropShadow dx="0" dy="18" stdDeviation="22" flood-color="#000" flood-opacity="0.16"/>
    </filter>
  </defs>

  <rect width="1600" height="1000" fill="url(#bg)"/>
  <rect x="62" y="62" width="1476" height="876" rx="36" fill="none" stroke="#d8d5d0" stroke-width="4"/>

  <rect x="400" y="44" width="800" height="72" rx="36" fill="#111"/>
  <text x="800" y="92" font-family="Arial, Helvetica, sans-serif" font-size="24" fill="#fff" font-weight="700" text-anchor="middle" letter-spacing="2">15% DE DESCUENTO PAGANDO EN EFECTIVO O TRANSFERENCIA</text>

  <image href="./logo2.0.png" x="742" y="128" width="116" height="116" preserveAspectRatio="xMidYMid meet"/>
  <text x="800" y="282" font-family="Arial, Helvetica, sans-serif" font-size="48" fill="#111" font-weight="800" text-anchor="middle" letter-spacing="5">SPORT17</text>
  <text x="800" y="328" font-family="Arial, Helvetica, sans-serif" font-size="20" fill="#6d6d6d" text-anchor="middle" letter-spacing="3">ZAPATILLAS + CONJUNTOS</text>

  <rect x="120" y="214" width="470" height="620" rx="34" fill="#fff" filter="url(#shadow)"/>
  <rect x="1010" y="214" width="470" height="620" rx="34" fill="#fff" filter="url(#shadow)"/>

  <image href="./masculino/conjunto_deportivo_argentina_gris.jpeg" x="138" y="232" width="434" height="594" preserveAspectRatio="xMidYMid slice"/>
  <image href="./femenino/conjunto_animal_print_leopardo.jpeg" x="1028" y="232" width="434" height="594" preserveAspectRatio="xMidYMid slice"/>

  <rect x="612" y="720" width="376" height="130" rx="26" fill="#111"/>
  <text x="800" y="770" font-family="Arial, Helvetica, sans-serif" font-size="30" fill="#fff" font-weight="800" text-anchor="middle">15% OFF</text>
  <text x="800" y="806" font-family="Arial, Helvetica, sans-serif" font-size="18" fill="#d9d9d9" text-anchor="middle">Efectivo o transferencia</text>
  <text x="800" y="832" font-family="Arial, Helvetica, sans-serif" font-size="18" fill="#d9d9d9" text-anchor="middle">Sumale zapatillas y cerrá el look</text>
</svg>
